<svg width="338" height="66" viewBox="0 0 338 66" fill="none" xmlns="http://www.w3.org/2000/svg">
<path d="M18.872 39.896C16.184 39.896 13.692 39.448 11.396 38.552C9.1 37.6373 7.23333 36.2187 5.796 34.296C4.35867 32.3547 3.56533 29.8347 3.416 26.736H12.264C12.264 27.8747 12.5533 28.8173 13.132 29.564C13.7107 30.3107 14.4947 30.8613 15.484 31.216C16.492 31.5707 17.6027 31.748 18.816 31.748C19.7867 31.748 20.692 31.664 21.532 31.496C22.3907 31.328 23.0813 31.0293 23.604 30.6C24.1267 30.1707 24.388 29.5827 24.388 28.836C24.388 27.9213 24.108 27.24 23.548 26.792C23.0067 26.344 22.0173 25.8307 20.58 25.252L12.404 21.696C9.716 20.5387 7.62533 19.176 6.132 17.608C4.63867 16.04 3.892 13.9027 3.892 11.196C3.892 8.02266 5.18 5.46533 7.756 3.524C10.3507 1.564 13.8973 0.583997 18.396 0.583997C22.9693 0.583997 26.4787 1.66666 28.924 3.832C31.3693 5.97867 32.7413 9.04933 33.04 13.044H24.248C24.024 11.812 23.4733 10.776 22.596 9.936C21.7373 9.096 20.3373 8.676 18.396 8.676C16.996 8.676 15.8667 8.93733 15.008 9.46C14.1493 9.964 13.72 10.5987 13.72 11.364C13.72 12.0733 13.9907 12.6333 14.532 13.044C15.092 13.4547 15.9227 13.9027 17.024 14.388L25.676 18.056C28.5507 19.3067 30.688 20.772 32.088 22.452C33.5067 24.132 34.216 26.148 34.216 28.5C34.216 31.02 33.6093 33.1293 32.396 34.828C31.2013 36.508 29.456 37.7773 27.16 38.636C24.8827 39.476 22.12 39.896 18.872 39.896ZM60.613 39V22.928C60.613 21.472 60.2583 20.3987 59.549 19.708C58.8397 18.9987 57.981 18.644 56.973 18.644C55.9463 18.644 55.0037 18.9333 54.145 19.512C53.2863 20.0907 52.5957 21.024 52.073 22.312C51.569 23.5813 51.317 25.2707 51.317 27.38H48.601C48.601 23.4227 49.0677 20.2027 50.001 17.72C50.953 15.2373 52.241 13.4173 53.865 12.26C55.5077 11.1027 57.365 10.524 59.437 10.524C61.8077 10.524 63.7397 11.056 65.233 12.12C66.745 13.184 67.8557 14.6493 68.565 16.516C69.2743 18.3827 69.629 20.52 69.629 22.928V39H60.613ZM42.357 39V11.42H50.253L51.317 15.984V39H42.357ZM89.4281 39.896C87.1134 39.896 84.9387 39.2987 82.9041 38.104C80.8694 36.9093 79.2174 35.2013 77.9481 32.98C76.6974 30.7587 76.0721 28.1267 76.0721 25.084C76.0721 22.0413 76.6974 19.4373 77.9481 17.272C79.1987 15.088 80.8414 13.4173 82.8761 12.26C84.9107 11.1027 87.0947 10.524 89.4281 10.524C91.7427 10.524 93.7587 10.9907 95.4761 11.924C97.1934 12.8387 98.5747 14.08 99.6201 15.648C100.684 17.216 101.375 18.9893 101.692 20.968C102.028 22.928 101.963 24.9533 101.496 27.044H83.1561V22.508H94.9441L93.6561 23.348C93.7121 22.6947 93.6841 22.032 93.5721 21.36C93.4787 20.688 93.2827 20.072 92.9841 19.512C92.6854 18.9333 92.2561 18.476 91.6961 18.14C91.1547 17.7853 90.4547 17.608 89.5961 17.608C88.6441 17.608 87.8134 17.8413 87.1041 18.308C86.4134 18.756 85.8721 19.4187 85.4801 20.296C85.1067 21.1547 84.9201 22.2093 84.9201 23.46V26.988C84.9201 28.164 85.0881 29.1813 85.4241 30.04C85.7601 30.8987 86.2547 31.5707 86.9081 32.056C87.5801 32.5227 88.4201 32.756 89.4281 32.756C90.2494 32.756 90.9681 32.588 91.5841 32.252C92.2001 31.916 92.6294 31.384 92.8721 30.656H101.776C101.496 32.3733 100.805 33.932 99.7041 35.332C98.6214 36.732 97.2027 37.8427 95.4481 38.664C93.7121 39.4853 91.7054 39.896 89.4281 39.896ZM127.164 39L126.016 31.636V21.304C126.016 19.9227 125.764 18.8493 125.26 18.084C124.756 17.3187 123.682 16.936 122.04 16.936C121.069 16.936 120.276 17.0853 119.66 17.384C119.062 17.664 118.614 18.0467 118.316 18.532C118.036 18.9987 117.896 19.512 117.896 20.072H108.208C108.208 17.9067 108.721 16.124 109.748 14.724C110.774 13.3053 112.314 12.2507 114.368 11.56C116.421 10.8693 118.978 10.524 122.04 10.524C124.709 10.524 127.005 10.9347 128.928 11.756C130.869 12.5773 132.362 13.8093 133.408 15.452C134.453 17.0947 134.976 19.1573 134.976 21.64V39H127.164ZM118.484 39.896C116.02 39.896 113.938 39.4853 112.24 38.664C110.56 37.824 109.29 36.6947 108.432 35.276C107.573 33.8573 107.144 32.2893 107.144 30.572C107.144 28.948 107.592 27.548 108.488 26.372C109.384 25.1773 110.709 24.2533 112.464 23.6C114.237 22.9467 116.412 22.62 118.988 22.62C120.556 22.62 121.937 22.704 123.132 22.872C124.345 23.04 125.586 23.2453 126.856 23.488V28.528C125.922 28.3227 124.952 28.164 123.944 28.052C122.954 27.94 121.984 27.884 121.032 27.884C119.706 27.884 118.652 28.0987 117.868 28.528C117.102 28.9387 116.72 29.62 116.72 30.572C116.72 31.2627 117.065 31.8693 117.756 32.392C118.446 32.896 119.538 33.148 121.032 33.148C122.301 33.148 123.3 32.896 124.028 32.392C124.756 31.888 125.269 31.2533 125.568 30.488C125.866 29.7227 126.016 28.9667 126.016 28.22H128.116C128.116 30.348 127.78 32.2987 127.108 34.072C126.436 35.8453 125.39 37.264 123.972 38.328C122.553 39.3733 120.724 39.896 118.484 39.896ZM143.857 39V0.359997H152.817V39H143.857ZM151.697 20.548L161.217 11.42H173.173L151.697 29.676V20.548ZM163.037 39L151.473 21.276L159.677 19.008L173.901 39H163.037ZM189.67 39.896C187.356 39.896 185.181 39.2987 183.146 38.104C181.112 36.9093 179.46 35.2013 178.19 32.98C176.94 30.7587 176.314 28.1267 176.314 25.084C176.314 22.0413 176.94 19.4373 178.19 17.272C179.441 15.088 181.084 13.4173 183.118 12.26C185.153 11.1027 187.337 10.524 189.67 10.524C191.985 10.524 194.001 10.9907 195.718 11.924C197.436 12.8387 198.817 14.08 199.862 15.648C200.926 17.216 201.617 18.9893 201.934 20.968C202.27 22.928 202.205 24.9533 201.738 27.044H183.398V22.508H195.186L193.898 23.348C193.954 22.6947 193.926 22.032 193.814 21.36C193.721 20.688 193.525 20.072 193.226 19.512C192.928 18.9333 192.498 18.476 191.938 18.14C191.397 17.7853 190.697 17.608 189.838 17.608C188.886 17.608 188.056 17.8413 187.346 18.308C186.656 18.756 186.114 19.4187 185.722 20.296C185.349 21.1547 185.162 22.2093 185.162 23.46V26.988C185.162 28.164 185.33 29.1813 185.666 30.04C186.002 30.8987 186.497 31.5707 187.15 32.056C187.822 32.5227 188.662 32.756 189.67 32.756C190.492 32.756 191.21 32.588 191.826 32.252C192.442 31.916 192.872 31.384 193.114 30.656H202.018C201.738 32.3733 201.048 33.932 199.946 35.332C198.864 36.732 197.445 37.8427 195.69 38.664C193.954 39.4853 191.948 39.896 189.67 39.896ZM209.318 39V11.252H218.278V39H209.318ZM216.374 27.24C216.374 23.488 216.85 20.408 217.802 18C218.754 15.592 219.958 13.8093 221.414 12.652C222.87 11.4947 224.354 10.916 225.866 10.916C226.165 10.916 226.463 10.9347 226.762 10.972C227.061 10.9907 227.341 11.028 227.602 11.084L227.686 20.1C227.219 20.044 226.743 20.0067 226.258 19.988C225.773 19.9507 225.315 19.932 224.886 19.932C223.579 19.932 222.422 20.1747 221.414 20.66C220.425 21.1453 219.65 21.92 219.09 22.984C218.549 24.048 218.278 25.4667 218.278 27.24H216.374ZM243.775 39.896C241.143 39.896 238.819 39.5507 236.803 38.86C234.787 38.1507 233.21 37.096 232.071 35.696C230.951 34.2773 230.4 32.4947 230.419 30.348H238.511C238.548 31.3187 238.922 31.9907 239.631 32.364C240.359 32.7373 241.339 32.924 242.571 32.924C243.318 32.924 243.934 32.8307 244.419 32.644C244.904 32.4573 245.268 32.2147 245.511 31.916C245.754 31.5987 245.875 31.2627 245.875 30.908C245.875 30.4413 245.707 30.068 245.371 29.788C245.035 29.508 244.512 29.228 243.803 28.948L237.111 26.344C235.132 25.5227 233.602 24.4867 232.519 23.236C231.455 21.9667 230.923 20.464 230.923 18.728C230.923 16.2827 232.052 14.304 234.311 12.792C236.57 11.28 239.659 10.524 243.579 10.524C247.256 10.524 250.084 11.3827 252.063 13.1C254.042 14.8173 255.04 17.0013 255.059 19.652H246.855C246.855 19.0547 246.603 18.5413 246.099 18.112C245.595 17.664 244.755 17.44 243.579 17.44C242.608 17.44 241.843 17.5987 241.283 17.916C240.723 18.2333 240.443 18.6533 240.443 19.176C240.443 19.8853 241.031 20.4453 242.207 20.856L249.823 23.908C251.708 24.6547 253.192 25.588 254.275 26.708C255.358 27.828 255.899 29.228 255.899 30.908C255.899 32.4387 255.367 33.8947 254.303 35.276C253.258 36.6387 251.82 37.7493 249.991 38.608C248.162 39.4667 246.09 39.896 243.775 39.896ZM262.748 1.424H275.572L283.888 21.472H283.188L291.504 1.424H303.824V39H294.808V12.26H296.04L286.38 35.5H280.584L270.98 12.316H271.708V39H262.748V1.424ZM324.366 39.896C322.051 39.896 319.876 39.2987 317.842 38.104C315.807 36.9093 314.155 35.2013 312.886 32.98C311.635 30.7587 311.01 28.1267 311.01 25.084C311.01 22.0413 311.635 19.4373 312.886 17.272C314.136 15.088 315.779 13.4173 317.814 12.26C319.848 11.1027 322.032 10.524 324.366 10.524C326.68 10.524 328.696 10.9907 330.414 11.924C332.131 12.8387 333.512 14.08 334.558 15.648C335.622 17.216 336.312 18.9893 336.63 20.968C336.966 22.928 336.9 24.9533 336.434 27.044H318.094V22.508H329.882L328.594 23.348C328.65 22.6947 328.622 22.032 328.51 21.36C328.416 20.688 328.22 20.072 327.922 19.512C327.623 18.9333 327.194 18.476 326.634 18.14C326.092 17.7853 325.392 17.608 324.534 17.608C323.582 17.608 322.751 17.8413 322.042 18.308C321.351 18.756 320.81 19.4187 320.418 20.296C320.044 21.1547 319.858 22.2093 319.858 23.46V26.988C319.858 28.164 320.026 29.1813 320.362 30.04C320.698 30.8987 321.192 31.5707 321.846 32.056C322.518 32.5227 323.358 32.756 324.366 32.756C325.187 32.756 325.906 32.588 326.522 32.252C327.138 31.916 327.567 31.384 327.81 30.656H336.714C336.434 32.3733 335.743 33.932 334.642 35.332C333.559 36.732 332.14 37.8427 330.386 38.664C328.65 39.4853 326.643 39.896 324.366 39.896ZM6.479 65.352C5.47433 65.352 4.55033 65.1467 3.707 64.736C2.871 64.318 2.2 63.6873 1.694 62.844C1.19533 61.9933 0.946 60.9153 0.946 59.61C0.946 58.2607 1.19533 57.1607 1.694 56.31C2.2 55.4593 2.871 54.8323 3.707 54.429C4.55033 54.0183 5.47433 53.813 6.479 53.813C7.46167 53.813 8.36733 54.0183 9.196 54.429C10.0247 54.8323 10.6883 55.4593 11.187 56.31C11.693 57.1607 11.946 58.2607 11.946 59.61C11.946 60.9153 11.693 61.9933 11.187 62.844C10.6883 63.6873 10.0247 64.318 9.196 64.736C8.36733 65.1467 7.46167 65.352 6.479 65.352ZM6.347 62.283C6.68433 62.283 7.01067 62.195 7.326 62.019C7.64867 61.843 7.91633 61.5607 8.129 61.172C8.34167 60.776 8.448 60.2553 8.448 59.61C8.448 58.6053 8.26833 57.8977 7.909 57.487C7.54967 57.0763 7.117 56.871 6.611 56.871C6.27367 56.871 5.93633 56.959 5.599 57.135C5.269 57.311 4.994 57.6007 4.774 58.004C4.56133 58.4 4.455 58.9353 4.455 59.61C4.455 60.5853 4.642 61.2747 5.016 61.678C5.39733 62.0813 5.841 62.283 6.347 62.283ZM21.8331 54.099H25.3531V65H21.8331V54.099ZM14.6501 54.099H18.1701V60.655C18.1701 61.1537 18.2948 61.524 18.5441 61.766C18.8008 62.0007 19.1271 62.118 19.5231 62.118C19.8824 62.118 20.2381 62.03 20.5901 61.854C20.9494 61.678 21.2464 61.3773 21.4811 60.952C21.7158 60.5267 21.8331 59.9363 21.8331 59.181H22.6031C22.6031 60.6183 22.4381 61.7807 22.1081 62.668C21.7781 63.548 21.3271 64.1897 20.7551 64.593C20.1904 64.9963 19.5488 65.198 18.8301 65.198C18.1041 65.198 17.4221 65.0733 16.7841 64.824C16.1461 64.5747 15.6291 64.1493 15.2331 63.548C14.8444 62.9467 14.6501 62.118 14.6501 61.062V54.099ZM29.0582 65V54.099H32.5782V65H29.0582ZM31.8302 60.38C31.8302 58.906 32.0172 57.696 32.3912 56.75C32.7652 55.804 33.2382 55.1037 33.8102 54.649C34.3822 54.1943 34.9652 53.967 35.5592 53.967C35.6766 53.967 35.7939 53.9743 35.9112 53.989C36.0286 53.9963 36.1386 54.011 36.2412 54.033L36.2742 57.575C36.0909 57.553 35.9039 57.5383 35.7132 57.531C35.5226 57.5163 35.3429 57.509 35.1742 57.509C34.6609 57.509 34.2062 57.6043 33.8102 57.795C33.4216 57.9857 33.1172 58.29 32.8972 58.708C32.6846 59.126 32.5782 59.6833 32.5782 60.38H31.8302ZM50.4606 65.352C49.8373 65.352 49.2543 65.165 48.7116 64.791C48.1763 64.4097 47.7436 63.8267 47.4136 63.042C47.0909 62.25 46.9296 61.2417 46.9296 60.017H47.8536C47.8536 60.3983 47.9526 60.7503 48.1506 61.073C48.3559 61.3957 48.6126 61.656 48.9206 61.854C49.2359 62.0447 49.5549 62.14 49.8776 62.14C50.3249 62.14 50.7063 62.0263 51.0216 61.799C51.3443 61.5717 51.5936 61.26 51.7696 60.864C51.9456 60.468 52.0336 60.0207 52.0336 59.522C52.0336 59.0453 51.9456 58.6163 51.7696 58.235C51.6009 57.8537 51.3553 57.553 51.0326 57.333C50.7099 57.113 50.3176 57.003 49.8556 57.003C49.4963 57.003 49.1626 57.0873 48.8546 57.256C48.5539 57.4247 48.3119 57.663 48.1286 57.971C47.9453 58.2717 47.8536 58.6273 47.8536 59.038H46.9296C46.9296 57.872 47.0763 56.904 47.3696 56.134C47.6703 55.3567 48.1029 54.7773 48.6676 54.396C49.2396 54.0073 49.9326 53.813 50.7466 53.813C51.6559 53.813 52.4699 54.0513 53.1886 54.528C53.9146 55.0047 54.4903 55.672 54.9156 56.53C55.3409 57.3807 55.5536 58.378 55.5536 59.522C55.5536 60.6807 55.3263 61.7 54.8716 62.58C54.4243 63.4527 53.8156 64.1347 53.0456 64.626C52.2829 65.11 51.4213 65.352 50.4606 65.352ZM44.3336 65V49.82H47.8536V62.173L46.5336 65H44.3336ZM62.6754 65.352C61.7661 65.352 60.9118 65.1173 60.1124 64.648C59.3131 64.1787 58.6641 63.5077 58.1654 62.635C57.6741 61.7623 57.4284 60.7283 57.4284 59.533C57.4284 58.3377 57.6741 57.3147 58.1654 56.464C58.6568 55.606 59.3021 54.9497 60.1014 54.495C60.9008 54.0403 61.7588 53.813 62.6754 53.813C63.5848 53.813 64.3768 53.9963 65.0514 54.363C65.7261 54.7223 66.2688 55.21 66.6794 55.826C67.0974 56.442 67.3688 57.1387 67.4934 57.916C67.6254 58.686 67.5998 59.4817 67.4164 60.303H60.2114V58.521H64.8424L64.3364 58.851C64.3584 58.5943 64.3474 58.334 64.3034 58.07C64.2668 57.806 64.1898 57.564 64.0724 57.344C63.9551 57.1167 63.7864 56.937 63.5664 56.805C63.3538 56.6657 63.0788 56.596 62.7414 56.596C62.3674 56.596 62.0411 56.6877 61.7624 56.871C61.4911 57.047 61.2784 57.3073 61.1244 57.652C60.9778 57.9893 60.9044 58.4037 60.9044 58.895V60.281C60.9044 60.743 60.9704 61.1427 61.1024 61.48C61.2344 61.8173 61.4288 62.0813 61.6854 62.272C61.9494 62.4553 62.2794 62.547 62.6754 62.547C62.9981 62.547 63.2804 62.481 63.5224 62.349C63.7644 62.217 63.9331 62.008 64.0284 61.722H67.5264C67.4164 62.3967 67.1451 63.009 66.7124 63.559C66.2871 64.109 65.7298 64.5453 65.0404 64.868C64.3584 65.1907 63.5701 65.352 62.6754 65.352ZM74.5852 65.352C73.5512 65.352 72.6382 65.2163 71.8462 64.945C71.0542 64.6663 70.4345 64.252 69.9872 63.702C69.5472 63.1447 69.3308 62.4443 69.3382 61.601H72.5172C72.5318 61.9823 72.6785 62.2463 72.9572 62.393C73.2432 62.5397 73.6282 62.613 74.1122 62.613C74.4055 62.613 74.6475 62.5763 74.8382 62.503C75.0288 62.4297 75.1718 62.3343 75.2672 62.217C75.3625 62.0923 75.4102 61.9603 75.4102 61.821C75.4102 61.6377 75.3442 61.491 75.2122 61.381C75.0802 61.271 74.8748 61.161 74.5962 61.051L71.9672 60.028C71.1898 59.7053 70.5885 59.2983 70.1632 58.807C69.7452 58.3083 69.5362 57.718 69.5362 57.036C69.5362 56.0753 69.9798 55.298 70.8672 54.704C71.7545 54.11 72.9682 53.813 74.5082 53.813C75.9528 53.813 77.0638 54.1503 77.8412 54.825C78.6185 55.4997 79.0108 56.3577 79.0182 57.399H75.7952C75.7952 57.1643 75.6962 56.9627 75.4982 56.794C75.3002 56.618 74.9702 56.53 74.5082 56.53C74.1268 56.53 73.8262 56.5923 73.6062 56.717C73.3862 56.8417 73.2762 57.0067 73.2762 57.212C73.2762 57.4907 73.5072 57.7107 73.9692 57.872L76.9612 59.071C77.7018 59.3643 78.2848 59.731 78.7102 60.171C79.1355 60.611 79.3482 61.161 79.3482 61.821C79.3482 62.4223 79.1392 62.9943 78.7212 63.537C78.3105 64.0723 77.7458 64.5087 77.0272 64.846C76.3085 65.1833 75.4945 65.352 74.5852 65.352ZM86.0427 65.352C85.3534 65.352 84.708 65.2273 84.1067 64.978C83.5127 64.7287 83.0324 64.34 82.6657 63.812C82.3064 63.2767 82.1267 62.591 82.1267 61.755V51.426H85.6687V61.623C85.6687 62.283 85.995 62.613 86.6477 62.613C86.853 62.613 87.0694 62.591 87.2967 62.547C87.5314 62.4957 87.8027 62.415 88.1107 62.305L88.6277 64.758C88.1804 64.9193 87.7514 65.0587 87.3407 65.176C86.9374 65.2933 86.5047 65.352 86.0427 65.352ZM80.8397 56.442V54.165H88.1327V56.442H80.8397ZM101.269 65.352C100.235 65.352 99.3218 65.2163 98.5298 64.945C97.7378 64.6663 97.1181 64.252 96.6707 63.702C96.2308 63.1447 96.0144 62.4443 96.0218 61.601H99.2008C99.2154 61.9823 99.3621 62.2463 99.6408 62.393C99.9268 62.5397 100.312 62.613 100.796 62.613C101.089 62.613 101.331 62.5763 101.522 62.503C101.712 62.4297 101.855 62.3343 101.951 62.217C102.046 62.0923 102.094 61.9603 102.094 61.821C102.094 61.6377 102.028 61.491 101.896 61.381C101.764 61.271 101.558 61.161 101.28 61.051L98.6508 60.028C97.8734 59.7053 97.2721 59.2983 96.8468 58.807C96.4288 58.3083 96.2198 57.718 96.2198 57.036C96.2198 56.0753 96.6634 55.298 97.5508 54.704C98.4381 54.11 99.6518 53.813 101.192 53.813C102.636 53.813 103.747 54.1503 104.525 54.825C105.302 55.4997 105.694 56.3577 105.702 57.399H102.479C102.479 57.1643 102.38 56.9627 102.182 56.794C101.984 56.618 101.654 56.53 101.192 56.53C100.81 56.53 100.51 56.5923 100.29 56.717C100.07 56.8417 99.9598 57.0067 99.9598 57.212C99.9598 57.4907 100.191 57.7107 100.653 57.872L103.645 59.071C104.385 59.3643 104.968 59.731 105.394 60.171C105.819 60.611 106.032 61.161 106.032 61.821C106.032 62.4223 105.823 62.9943 105.405 63.537C104.994 64.0723 104.429 64.5087 103.711 64.846C102.992 65.1833 102.178 65.352 101.269 65.352ZM115.894 65V58.686C115.894 58.114 115.755 57.6923 115.476 57.421C115.198 57.1423 114.86 57.003 114.464 57.003C114.061 57.003 113.691 57.1167 113.353 57.344C113.016 57.5713 112.745 57.938 112.539 58.444C112.341 58.9427 112.242 59.6063 112.242 60.435H111.175C111.175 58.8803 111.359 57.6153 111.725 56.64C112.099 55.6647 112.605 54.9497 113.243 54.495C113.889 54.0403 114.618 53.813 115.432 53.813C116.364 53.813 117.123 54.022 117.709 54.44C118.303 54.858 118.74 55.4337 119.018 56.167C119.297 56.9003 119.436 57.74 119.436 58.686V65H115.894ZM108.722 65V49.82H112.242V65H108.722ZM127.5 65.352C126.496 65.352 125.572 65.1467 124.728 64.736C123.892 64.318 123.221 63.6873 122.715 62.844C122.217 61.9933 121.967 60.9153 121.967 59.61C121.967 58.2607 122.217 57.1607 122.715 56.31C123.221 55.4593 123.892 54.8323 124.728 54.429C125.572 54.0183 126.496 53.813 127.5 53.813C128.483 53.813 129.389 54.0183 130.217 54.429C131.046 54.8323 131.71 55.4593 132.208 56.31C132.714 57.1607 132.967 58.2607 132.967 59.61C132.967 60.9153 132.714 61.9933 132.208 62.844C131.71 63.6873 131.046 64.318 130.217 64.736C129.389 65.1467 128.483 65.352 127.5 65.352ZM127.368 62.283C127.706 62.283 128.032 62.195 128.347 62.019C128.67 61.843 128.938 61.5607 129.15 61.172C129.363 60.776 129.469 60.2553 129.469 59.61C129.469 58.6053 129.29 57.8977 128.93 57.487C128.571 57.0763 128.138 56.871 127.632 56.871C127.295 56.871 126.958 56.959 126.62 57.135C126.29 57.311 126.015 57.6007 125.795 58.004C125.583 58.4 125.476 58.9353 125.476 59.61C125.476 60.5853 125.663 61.2747 126.037 61.678C126.419 62.0813 126.862 62.283 127.368 62.283ZM140.127 65.352C139.217 65.352 138.363 65.1173 137.564 64.648C136.764 64.1787 136.115 63.5077 135.617 62.635C135.125 61.7623 134.88 60.7283 134.88 59.533C134.88 58.3377 135.125 57.3147 135.617 56.464C136.108 55.606 136.753 54.9497 137.553 54.495C138.352 54.0403 139.21 53.813 140.127 53.813C141.036 53.813 141.828 53.9963 142.503 54.363C143.177 54.7223 143.72 55.21 144.131 55.826C144.549 56.442 144.82 57.1387 144.945 57.916C145.077 58.686 145.051 59.4817 144.868 60.303H137.663V58.521H142.294L141.788 58.851C141.81 58.5943 141.799 58.334 141.755 58.07C141.718 57.806 141.641 57.564 141.524 57.344C141.406 57.1167 141.238 56.937 141.018 56.805C140.805 56.6657 140.53 56.596 140.193 56.596C139.819 56.596 139.492 56.6877 139.214 56.871C138.942 57.047 138.73 57.3073 138.576 57.652C138.429 57.9893 138.356 58.4037 138.356 58.895V60.281C138.356 60.743 138.422 61.1427 138.554 61.48C138.686 61.8173 138.88 62.0813 139.137 62.272C139.401 62.4553 139.731 62.547 140.127 62.547C140.449 62.547 140.732 62.481 140.974 62.349C141.216 62.217 141.384 62.008 141.48 61.722H144.978C144.868 62.3967 144.596 63.009 144.164 63.559C143.738 64.109 143.181 64.5453 142.492 64.868C141.81 65.1907 141.021 65.352 140.127 65.352ZM152.036 65.352C151.002 65.352 150.089 65.2163 149.297 64.945C148.505 64.6663 147.886 64.252 147.438 63.702C146.998 63.1447 146.782 62.4443 146.789 61.601H149.968C149.983 61.9823 150.13 62.2463 150.408 62.393C150.694 62.5397 151.079 62.613 151.563 62.613C151.857 62.613 152.099 62.5763 152.289 62.503C152.48 62.4297 152.623 62.3343 152.718 62.217C152.814 62.0923 152.861 61.9603 152.861 61.821C152.861 61.6377 152.795 61.491 152.663 61.381C152.531 61.271 152.326 61.161 152.047 61.051L149.418 60.028C148.641 59.7053 148.04 59.2983 147.614 58.807C147.196 58.3083 146.987 57.718 146.987 57.036C146.987 56.0753 147.431 55.298 148.318 54.704C149.206 54.11 150.419 53.813 151.959 53.813C153.404 53.813 154.515 54.1503 155.292 54.825C156.07 55.4997 156.462 56.3577 156.469 57.399H153.246C153.246 57.1643 153.147 56.9627 152.949 56.794C152.751 56.618 152.421 56.53 151.959 56.53C151.578 56.53 151.277 56.5923 151.057 56.717C150.837 56.8417 150.727 57.0067 150.727 57.212C150.727 57.4907 150.958 57.7107 151.42 57.872L154.412 59.071C155.153 59.3643 155.736 59.731 156.161 60.171C156.587 60.611 156.799 61.161 156.799 61.821C156.799 62.4223 156.59 62.9943 156.172 63.537C155.762 64.0723 155.197 64.5087 154.478 64.846C153.76 65.1833 152.946 65.352 152.036 65.352Z" fill="#DB4437"/>
</svg>
